# Blender 4.1.0
# www.blender.org
mtllib bottomButton.mtl
o hearing__Material.004_0
v -33.910084 0.359253 1.751233
v -30.293295 1.457088 1.751233
v -30.459713 2.005795 1.751233
v -35.070320 0.602749 1.751233
v -35.308113 5.425499 -1.554190
v -31.817881 6.484020 -1.554191
v -31.817881 6.484020 -1.751217
v -35.308113 5.425499 -1.751216
v -35.070320 0.602749 -1.751216
v -30.459713 2.005795 -1.751216
v -30.293295 1.457088 -1.751216
v -33.910084 0.359253 -1.751215
v -33.737820 0.247852 -1.751215
v -30.247587 1.306374 -1.751216
v -30.247587 1.306374 -1.554189
v -33.737820 0.247852 -1.554189
v -34.096928 0.302547 -1.751215
v -34.096928 0.302547 -1.554189
v -35.300819 0.553738 -1.554189
v -35.290550 0.547405 -1.751216
v -35.667412 2.569256 1.751233
v -31.056171 3.972485 1.751232
v -31.244848 4.594616 1.751232
v -34.799755 3.516483 1.751232
v -35.881050 2.492722 -1.751216
v -35.885952 2.481846 -1.554189
v -34.972889 3.484829 -1.554189
v -34.976994 3.475727 -1.751216
v -34.799755 3.516483 -1.751216
v -31.244848 4.594616 -1.751216
v -31.056171 3.972485 -1.751216
v -35.667412 2.569256 -1.751216
v -35.393967 5.223713 1.751232
v -31.769344 6.323982 1.751232
v -31.817881 6.484020 1.751232
v -35.308113 5.425499 1.751232
v -35.581154 5.166897 -1.751216
v -35.581154 5.166897 -1.554190
v -35.489250 5.370564 -1.554190
v -35.489250 5.370564 -1.751216
v -35.308113 5.425499 -1.751216
v -31.817881 6.484020 -1.751217
v -31.769344 6.323982 -1.751216
v -35.393967 5.223713 -1.751216
v -34.376236 2.117432 1.751233
v -30.820608 3.195782 1.751232
v -31.009295 3.817913 1.751232
v -35.619904 2.414875 1.751233
v -34.545944 2.052723 -1.751216
v -34.537304 2.047401 -1.554189
v -35.850410 2.365875 -1.554189
v -35.840130 2.359543 -1.751216
v -35.619904 2.414875 -1.751216
v -31.009295 3.817913 -1.751216
v -30.820608 3.195782 -1.751216
v -34.376236 2.117432 -1.751216
v -34.830959 3.675808 1.751232
v -31.291727 4.749187 1.751232
v -31.558872 5.630039 1.751232
v -36.185867 4.222015 1.751232
v -35.007019 3.614170 -1.751216
v -35.001892 3.609928 -1.554189
v -36.406536 4.168869 -1.554189
v -36.400494 4.163887 -1.751216
v -31.291727 4.749187 -1.751216
v -34.830959 3.675808 -1.751216
v -36.185867 4.222015 -1.751216
v -31.558872 5.630039 -1.751216
v -35.133938 0.752228 1.751233
v -30.506586 2.160358 1.751233
v -30.773739 3.041218 1.751232
v -34.312534 1.967964 1.751233
v -35.344563 0.681007 -1.751216
v -35.346760 0.673565 -1.554189
v -34.491367 1.927574 -1.554189
v -34.493233 1.921284 -1.751216
v -30.506586 2.160358 -1.751216
v -35.133938 0.752228 -1.751216
v -34.312534 1.967964 -1.751216
v -30.773739 3.041218 -1.751216
v -35.880829 2.493206 1.751233
v -34.977203 3.475266 1.751232
v -34.546383 2.052994 1.751233
v -35.839680 2.359249 1.751233
v -35.344475 0.681320 1.751233
v -34.493320 1.920979 1.751233
v -34.096928 0.302547 1.751233
v -35.290089 0.547119 1.751233
v -33.918953 0.192909 -1.751216
v -33.918953 0.192909 -1.554189
v -35.290550 0.547405 -1.751216
v -34.096928 0.302547 -1.751215
v -35.344563 0.681007 -1.751216
v -34.493233 1.921284 -1.751216
v -35.840130 2.359543 -1.751216
v -34.545944 2.052723 -1.751216
v -34.976994 3.475727 -1.751216
v -35.881050 2.492722 -1.751216
v -35.007019 3.614170 -1.751216
v -36.400494 4.163887 -1.751216
v -35.489250 5.370564 -1.751216
v -35.581154 5.166897 -1.751216
v -35.489250 5.370564 -1.554190
v -35.489250 5.370564 -1.751216
v -35.581154 5.166897 1.751232
v -35.489250 5.370564 1.751232
v -35.007263 3.614368 1.751232
v -36.400253 4.163673 1.751232
v -30.247587 1.306374 1.562080
v -33.737820 0.247852 1.562080
v -33.918953 0.192909 1.562080
v -35.300819 0.553738 1.562080
v -34.096928 0.302547 1.562080
v -35.346760 0.673565 1.562080
v -34.491367 1.927574 1.562080
v -35.850410 2.365875 1.562080
v -34.537304 2.047401 1.562080
v -34.972889 3.484829 1.562080
v -35.885952 2.481846 1.562080
v -35.001892 3.609928 1.562080
v -36.406536 4.168869 1.562079
v -35.581154 5.166897 1.562079
v -35.489250 5.370564 1.562079
v -35.489250 5.370564 1.562079
v -35.308113 5.425499 1.562079
v -31.817881 6.484020 1.562078
v -30.247587 1.306374 1.751233
v -33.737820 0.247852 1.751233
v -33.918953 0.192909 1.751233
v -35.290089 0.547119 1.751233
v -34.096928 0.302547 1.751233
v -35.344475 0.681320 1.751233
v -34.493320 1.920979 1.751233
v -35.839680 2.359249 1.751233
v -34.546383 2.052994 1.751233
v -34.977203 3.475266 1.751232
v -35.880829 2.493206 1.751233
v -35.007263 3.614368 1.751232
v -36.400253 4.163673 1.751232
v -35.581154 5.166897 1.751232
v -35.489250 5.370564 1.751232
v -35.489250 5.370564 1.751232
v -35.308113 5.425499 1.751232
v -31.817881 6.484020 1.751232
v -31.605755 5.784607 -1.751216
v -36.216995 4.381382 -1.751216
v -36.430622 4.304848 -1.751216
v -36.430622 4.304848 -1.751216
v -36.435535 4.293968 -1.554189
v -36.435535 4.293968 1.562079
v -36.430408 4.305332 1.751232
v -36.430408 4.305332 1.751232
v -36.216995 4.381382 1.751232
v -31.605755 5.784607 1.751232
v -30.247587 1.306374 -1.751216
v -33.737820 0.247852 -1.751215
v -33.918953 0.192909 -1.751216
v -33.918953 0.192909 -1.751216
v -33.918953 0.192909 -1.554189
v -33.918953 0.192909 1.562080
v -33.918953 0.192909 1.751233
v -33.918953 0.192909 1.751233
v -33.737820 0.247852 1.751233
v -30.247587 1.306374 1.751233
v -31.009295 3.817913 1.751232
v -35.619904 2.414875 1.751233
v -35.619904 2.414875 1.751233
v -35.839680 2.359249 1.751233
v -35.839680 2.359249 1.751233
v -35.880829 2.493206 1.751233
v -35.885952 2.481846 1.562080
v -35.850410 2.365875 1.562080
v -35.885952 2.481846 -1.554189
v -35.850410 2.365875 -1.554189
v -35.881050 2.492722 -1.751216
v -35.840130 2.359543 -1.751216
v -35.850410 2.365875 -1.554189
v -35.885952 2.481846 -1.554189
v -35.881050 2.492722 -1.751216
v -35.667412 2.569256 -1.751216
v -35.619904 2.414875 -1.751216
v -31.009295 3.817913 -1.751216
v -31.291727 4.749187 1.751232
v -34.830959 3.675808 1.751232
v -34.830959 3.675808 1.751232
v -35.007263 3.614368 1.751232
v -34.977203 3.475266 1.751232
v -35.007263 3.614368 1.751232
v -35.001892 3.609928 1.562080
v -34.972889 3.484829 1.562080
v -35.001892 3.609928 -1.554189
v -34.972889 3.484829 -1.554189
v -36.400253 4.163673 1.751232
v -36.430408 4.305332 1.751232
v -36.435535 4.293968 1.562079
v -36.406536 4.168869 1.562079
v -36.430408 4.305332 1.751232
v -36.216995 4.381382 1.751232
v -36.216995 4.381382 1.751232
v -31.605755 5.784607 1.751232
v -35.007019 3.614170 -1.751216
v -34.976994 3.475727 -1.751216
v -35.007019 3.614170 -1.751216
v -34.830959 3.675808 -1.751216
v -34.830959 3.675808 -1.751216
v -31.291727 4.749187 -1.751216
v -36.430622 4.304848 -1.751216
v -36.216995 4.381382 -1.751216
v -36.430622 4.304848 -1.751216
v -36.400494 4.163887 -1.751216
v -36.406536 4.168869 -1.554189
v -36.435535 4.293968 -1.554189
v -31.605755 5.784607 -1.751216
v -36.216995 4.381382 -1.751216
v -30.506586 2.160358 1.751233
v -35.133938 0.752228 1.751233
v -35.070320 0.602749 1.751233
v -35.290089 0.547119 1.751233
v -35.290089 0.547119 1.751233
v -35.344475 0.681320 1.751233
v -35.346760 0.673565 1.562080
v -35.300819 0.553738 1.562080
v -35.346760 0.673565 -1.554189
v -35.300819 0.553738 -1.554189
v -34.493320 1.920979 1.751233
v -34.546383 2.052994 1.751233
v -34.537304 2.047401 1.562080
v -34.491367 1.927574 1.562080
v -34.493320 1.920979 1.751233
v -34.312534 1.967964 1.751233
v -34.312534 1.967964 1.751233
v -30.773739 3.041218 1.751232
v -35.344563 0.681007 -1.751216
v -35.290550 0.547405 -1.751216
v -35.344563 0.681007 -1.751216
v -35.133938 0.752228 -1.751216
v -35.133938 0.752228 -1.751216
v -30.506586 2.160358 -1.751216
v -34.545944 2.052723 -1.751216
v -34.376236 2.117432 -1.751216
v -34.545944 2.052723 -1.751216
v -34.493233 1.921284 -1.751216
v -34.491367 1.927574 -1.554189
v -34.537304 2.047401 -1.554189
v -34.537304 2.047401 -1.554189
v -34.491367 1.927574 -1.554189
v -30.773739 3.041218 -1.751216
v -34.312534 1.967964 -1.751216
vn -0.0000 -0.0000 1.0000
vn -0.2902 0.9570 -0.0000
vn -0.0000 -0.0000 -1.0000
vn 0.2902 -0.9570 -0.0000
vn -0.3691 -0.9294 0.0053
vn -0.3695 -0.9292 0.0025
vn -0.2034 -0.9791 0.0052
vn -0.2026 -0.9792 0.0105
vn -0.7378 0.6750 0.0015
vn -0.7386 0.6741 0.0007
vn -0.7378 0.6750 0.0016
vn -0.8253 0.5647 0.0053
vn -0.8255 0.5644 0.0026
vn -0.9115 0.4113 -0.0000
vn -0.2332 -0.9724 0.0015
vn -0.2345 -0.9721 0.0006
vn -0.2345 -0.9721 0.0009
vn -0.3684 -0.9297 0.0009
vn -0.3690 -0.9294 0.0004
vn -0.3690 -0.9294 0.0006
vn -0.8253 0.5647 0.0010
vn -0.8257 0.5641 0.0005
vn -0.8253 0.5647 0.0009
vn 0.2903 -0.9569 -0.0000
vn -0.2034 -0.9791 -0.0056
vn -0.3695 -0.9292 -0.0029
vn -0.8257 0.5641 -0.0005
vn -0.2344 -0.9721 -0.0008
vn -0.7386 0.6741 -0.0008
vn -0.3690 -0.9294 -0.0003
vn -0.3690 -0.9294 -0.0006
vn -0.8255 0.5644 -0.0028
vn -0.2025 -0.9792 -0.0114
vn -0.3691 -0.9294 -0.0058
vn -0.8253 0.5648 -0.0010
vn -0.2331 -0.9725 -0.0016
vn -0.7377 0.6751 -0.0016
vn -0.3683 -0.9297 -0.0009
vn -0.3683 -0.9297 -0.0010
vn -0.8252 0.5648 -0.0057
vn -0.7134 0.7006 0.0104
vn -0.7141 0.7000 0.0057
vn -0.7140 0.7001 -0.0057
vn -0.7134 0.7007 -0.0114
vn -0.5245 -0.8514 -0.0000
vn -0.9551 -0.2931 0.0437
vn -0.9550 -0.2934 0.0435
vn -0.9558 -0.2931 0.0222
vn -0.9559 -0.2929 0.0223
vn -0.9559 -0.2931 -0.0204
vn -0.9552 -0.2932 -0.0402
vn -0.9551 -0.2935 -0.0404
vn -0.9755 -0.2182 -0.0280
vn -0.9755 -0.2181 -0.0279
vn -0.9749 -0.2222 -0.0143
vn -0.9749 -0.2220 -0.0142
vn -0.9749 -0.2222 0.0129
vn -0.9749 -0.2223 0.0129
vn -0.9758 -0.2163 0.0330
vn -0.9758 -0.2164 0.0330
vn -0.9749 -0.2221 0.0160
vn -0.9751 -0.2211 0.0167
vn -0.9755 -0.2185 0.0255
vn -0.9757 -0.2169 -0.0305
vn -0.9757 -0.2168 -0.0304
vn -0.9751 -0.2214 -0.0154
vn -0.9751 -0.2213 -0.0154
vn -0.9294 -0.3676 0.0327
vn -0.9296 -0.3671 0.0331
vn -0.9318 -0.3627 0.0168
vn -0.9319 -0.3624 -0.0154
vn -0.9319 -0.3624 -0.0155
vn -0.9303 -0.3657 -0.0281
vn -0.9321 -0.3619 -0.0143
vn -0.9321 -0.3619 -0.0142
vn -0.9298 -0.3668 -0.0306
vn -0.9298 -0.3667 -0.0305
vn -0.9305 -0.3654 0.0257
vn -0.9305 -0.3653 0.0257
vn -0.9322 -0.3617 0.0130
vn -0.9322 -0.3617 0.0131
vt 0.385770 0.992723
vt 0.625000 0.992723
vt 0.624999 0.966229
vt 0.385770 0.966248
vt 0.385770 0.514063
vt 0.625000 0.514063
vt 0.625000 0.500000
vt 0.385770 0.500000
vt 0.385770 0.283753
vt 0.625000 0.283771
vt 0.625000 0.257277
vt 0.385770 0.257277
vt 0.385770 0.250000
vt 0.625000 0.250000
vt 0.625000 0.235937
vt 0.385770 0.235937
vt 0.125000 0.992723
vt 0.139063 0.992723
vt 0.139063 0.965309
vt 0.125000 0.965730
vt 0.385770 0.871286
vt 0.625000 0.871268
vt 0.625000 0.841229
vt 0.385770 0.841208
vt 0.125000 0.871794
vt 0.139063 0.872207
vt 0.139063 0.840291
vt 0.125000 0.840636
vt 0.385770 0.408792
vt 0.625000 0.408771
vt 0.625000 0.378732
vt 0.385770 0.378714
vt 0.385770 0.757728
vt 0.625000 0.757728
vt 0.625000 0.750000
vt 0.385770 0.750000
vt 0.125000 0.757728
vt 0.139063 0.757728
vt 0.139063 0.750000
vt 0.125000 0.750000
vt 0.625000 0.492272
vt 0.385770 0.492272
vt 0.385770 0.908750
vt 0.625000 0.908771
vt 0.625000 0.878732
vt 0.385770 0.878750
vt 0.125000 0.909338
vt 0.139063 0.909691
vt 0.139063 0.877812
vt 0.125000 0.878232
vt 0.385770 0.371250
vt 0.625000 0.371268
vt 0.625000 0.341229
vt 0.385770 0.341250
vt 0.385770 0.835624
vt 0.625000 0.835632
vt 0.625000 0.814366
vt 0.385770 0.814373
vt 0.125000 0.835806
vt 0.139063 0.835935
vt 0.139063 0.814062
vt 0.125000 0.814214
vt 0.625000 0.414368
vt 0.385770 0.414376
vt 0.385770 0.435627
vt 0.625000 0.435634
vt 0.385770 0.960638
vt 0.625000 0.960632
vt 0.625000 0.939366
vt 0.385770 0.939358
vt 0.125000 0.960796
vt 0.139063 0.960945
vt 0.139063 0.939053
vt 0.125000 0.939179
vt 0.625000 0.289368
vt 0.385770 0.289362
vt 0.385770 0.310642
vt 0.625000 0.310634
vt 0.375000 0.871776
vt 0.375000 0.840653
vt 0.375000 0.909320
vt 0.375000 0.878251
vt 0.375000 0.960789
vt 0.375000 0.939185
vt 0.375000 0.992723
vt 0.375000 0.965748
vt 0.375000 0.250000
vt 0.375000 0.235937
vt 0.375000 0.284271
vt 0.375000 0.257277
vt 0.375000 0.289204
vt 0.375000 0.310821
vt 0.375000 0.371768
vt 0.375000 0.340662
vt 0.375000 0.409364
vt 0.375000 0.378206
vt 0.375000 0.414194
vt 0.375000 0.435786
vt 0.375000 0.500000
vt 0.375000 0.492272
vt 0.375000 0.514063
vt 0.375000 0.757728
vt 0.375000 0.750000
vt 0.375000 0.835800
vt 0.375000 0.814220
vt 0.625000 0.013501
vt 0.385770 0.013501
vt 0.375000 0.013501
vt 0.361499 0.965309
vt 0.361499 0.992723
vt 0.361499 0.960945
vt 0.361499 0.939053
vt 0.361499 0.877812
vt 0.361499 0.909691
vt 0.361499 0.840291
vt 0.361499 0.872207
vt 0.361499 0.835935
vt 0.361499 0.814062
vt 0.361499 0.757728
vt 0.361499 0.750000
vt 0.375000 0.736499
vt 0.385770 0.736499
vt 0.625000 0.736499
vt 0.625000 0.000000
vt 0.385770 0.000000
vt 0.375000 0.000000
vt 0.625000 0.466229
vt 0.385770 0.466211
vt 0.375000 0.465703
vt 0.125000 0.784297
vt 0.139063 0.784709
vt 0.361499 0.784709
vt 0.375000 0.784278
vt 0.385770 0.783789
vt 0.625000 0.783771
vt 0.125000 1.000000
vt 0.139063 1.000000
vt 0.361499 1.000000
vt 0.375000 1.000000
vt 0.385770 1.000000
vt 0.625000 1.000000
vt 0.625000 0.875000
vt 0.391823 0.875000
vt 0.385770 0.875000
vt 0.380549 0.875000
vt 0.375000 0.875257
vt 0.361499 0.875223
vt 0.139063 0.875223
vt 0.125000 0.874745
vt 0.139063 0.874778
vt 0.380526 0.375000
vt 0.385770 0.375000
vt 0.391823 0.375000
vt 0.625000 0.375000
vt 0.625000 0.837498
vt 0.385770 0.837497
vt 0.379621 0.837497
vt 0.375000 0.837497
vt 0.361499 0.837497
vt 0.139063 0.837497
vt 0.375000 0.812500
vt 0.361499 0.812500
vt 0.379954 0.812500
vt 0.385770 0.812500
vt 0.391179 0.812500
vt 0.625000 0.812500
vt 0.125000 0.837497
vt 0.375000 0.412503
vt 0.379621 0.412503
vt 0.385770 0.412503
vt 0.625000 0.412502
vt 0.379927 0.437500
vt 0.385770 0.437500
vt 0.125000 0.812500
vt 0.139063 0.812500
vt 0.625000 0.437500
vt 0.391179 0.437500
vt 0.625000 0.962497
vt 0.390955 0.962498
vt 0.385770 0.962498
vt 0.379960 0.962498
vt 0.375000 0.962498
vt 0.361499 0.962498
vt 0.139063 0.962498
vt 0.375000 0.937500
vt 0.361499 0.937500
vt 0.375000 0.912503
vt 0.379610 0.912503
vt 0.385770 0.912503
vt 0.625000 0.912502
vt 0.125000 0.962498
vt 0.380008 0.287502
vt 0.385770 0.287502
vt 0.390955 0.287502
vt 0.625000 0.287503
vt 0.375000 0.312500
vt 0.379463 0.312500
vt 0.125000 0.912503
vt 0.139063 0.912503
vt 0.139063 0.937500
vt 0.625000 0.337497
vt 0.385770 0.337497
s 0
usemtl Material.004
f 1/1/1 2/2/1 3/3/1
f 1/1/1 3/3/1 4/4/1
f 5/5/2 6/6/2 7/7/2
f 5/5/2 7/7/2 8/8/2
f 9/9/3 10/10/3 11/11/3
f 9/9/3 11/11/3 12/12/3
f 13/13/4 14/14/4 15/15/4
f 13/13/4 15/15/4 16/16/4
s 1
f 17/17/5 18/18/6 19/19/7
f 17/17/5 19/19/7 20/20/8
s 0
f 21/21/1 22/22/1 23/23/1
f 21/21/1 23/23/1 24/24/1
s 1
f 25/25/9 26/26/10 27/27/10
f 25/25/9 27/27/10 28/28/11
s 0
f 29/29/3 30/30/3 31/31/3
f 29/29/3 31/31/3 32/32/3
f 33/33/1 34/34/1 35/35/1
f 33/33/1 35/35/1 36/36/1
s 1
f 37/37/12 38/38/13 39/39/14
f 37/37/12 39/39/14 40/40/14
s 0
f 41/8/3 42/7/3 43/41/3
f 41/8/3 43/41/3 44/42/3
f 45/43/1 46/44/1 47/45/1
f 45/43/1 47/45/1 48/46/1
s 1
f 49/47/15 50/48/16 51/49/17
f 49/47/15 51/49/17 52/50/15
s 0
f 53/51/3 54/52/3 55/53/3
f 53/51/3 55/53/3 56/54/3
f 57/55/1 58/56/1 59/57/1
f 57/55/1 59/57/1 60/58/1
s 1
f 61/59/18 62/60/19 63/61/20
f 61/59/18 63/61/20 64/62/18
s 0
f 65/63/3 66/64/3 67/65/3
f 65/63/3 67/65/3 68/66/3
f 69/67/1 70/68/1 71/69/1
f 69/67/1 71/69/1 72/70/1
s 1
f 73/71/21 74/72/22 75/73/22
f 73/71/21 75/73/22 76/74/23
s 0
f 77/75/3 78/76/3 79/77/3
f 77/75/3 79/77/3 80/78/3
f 81/79/1 21/21/1 24/24/1
f 81/79/1 24/24/1 82/80/1
f 83/81/1 45/43/1 48/46/1
f 83/81/1 48/46/1 84/82/1
f 85/83/1 69/67/1 72/70/1
f 85/83/1 72/70/1 86/84/1
f 87/85/1 1/1/1 4/4/1
f 87/85/1 4/4/1 88/86/1
f 89/87/24 13/13/24 16/16/24
f 89/87/24 16/16/24 90/88/24
f 91/89/3 9/9/3 12/12/3
f 91/89/3 12/12/3 92/90/3
f 78/76/3 93/91/3 94/92/3
f 78/76/3 94/92/3 79/77/3
f 95/93/3 53/51/3 56/54/3
f 95/93/3 56/54/3 96/94/3
f 97/95/3 29/29/3 32/32/3
f 97/95/3 32/32/3 98/96/3
f 66/64/3 99/97/3 100/98/3
f 66/64/3 100/98/3 67/65/3
f 101/99/3 41/8/3 44/42/3
f 101/99/3 44/42/3 102/100/3
f 103/101/2 5/5/2 8/8/2
f 103/101/2 8/8/2 104/99/2
f 105/102/1 33/33/1 36/36/1
f 105/102/1 36/36/1 106/103/1
f 107/104/1 57/55/1 60/58/1
f 107/104/1 60/58/1 108/105/1
f 16/16/4 15/15/4 109/106/4
f 16/16/4 109/106/4 110/107/4
f 90/88/24 16/16/24 110/107/24
f 90/88/24 110/107/24 111/108/24
s 1
f 112/109/25 19/19/7 18/18/6
f 112/109/25 18/18/6 113/110/26
f 74/72/22 114/111/27 115/112/27
f 74/72/22 115/112/27 75/73/22
f 116/113/28 51/49/17 50/48/16
f 116/113/28 50/48/16 117/114/28
f 118/115/29 27/27/10 26/26/10
f 118/115/29 26/26/10 119/116/29
f 62/60/19 120/117/30 121/118/31
f 62/60/19 121/118/31 63/61/20
f 39/39/14 38/38/13 122/119/32
f 39/39/14 122/119/32 123/120/14
s 0
f 124/121/2 125/122/2 5/5/2
f 124/121/2 5/5/2 103/101/2
f 125/122/2 126/123/2 6/6/2
f 125/122/2 6/6/2 5/5/2
f 110/107/4 109/106/4 127/124/4
f 110/107/4 127/124/4 128/125/4
f 111/108/24 110/107/24 128/125/24
f 111/108/24 128/125/24 129/126/24
s 1
f 130/86/33 112/109/25 113/110/26
f 130/86/33 113/110/26 131/85/34
f 114/111/27 132/83/35 133/84/35
f 114/111/27 133/84/35 115/112/27
f 134/82/36 116/113/28 117/114/28
f 134/82/36 117/114/28 135/81/36
f 136/80/37 118/115/29 119/116/29
f 136/80/37 119/116/29 137/79/37
f 120/117/30 138/104/38 139/105/39
f 120/117/30 139/105/39 121/118/31
f 123/120/14 122/119/32 140/102/40
f 123/120/14 140/102/40 141/103/14
s 0
f 142/103/2 143/36/2 125/122/2
f 142/103/2 125/122/2 124/121/2
f 143/36/2 144/35/2 126/123/2
f 143/36/2 126/123/2 125/122/2
f 44/42/3 43/41/3 145/127/3
f 44/42/3 145/127/3 146/128/3
f 102/100/3 44/42/3 146/128/3
f 102/100/3 146/128/3 147/129/3
s 1
f 148/130/41 149/131/42 38/38/13
f 148/130/41 38/38/13 37/37/12
f 122/119/32 38/38/13 149/131/42
f 122/119/32 149/131/42 150/132/43
f 140/102/40 122/119/32 150/132/43
f 140/102/40 150/132/43 151/133/44
s 0
f 152/133/1 153/134/1 33/33/1
f 152/133/1 33/33/1 105/102/1
f 153/134/1 154/135/1 34/34/1
f 153/134/1 34/34/1 33/33/1
f 12/12/3 11/11/3 155/14/3
f 12/12/3 155/14/3 156/13/3
f 92/90/3 12/12/3 156/13/3
f 92/90/3 156/13/3 157/87/3
s 1
f 158/136/45 159/137/45 18/18/6
f 158/136/45 18/18/6 17/17/5
f 113/110/26 18/18/6 159/137/45
f 113/110/26 159/137/45 160/138/45
f 131/85/34 113/110/26 160/138/45
f 131/85/34 160/138/45 161/139/45
s 0
f 162/139/1 163/140/1 1/1/1
f 162/139/1 1/1/1 87/85/1
f 163/140/1 164/141/1 2/2/1
f 163/140/1 2/2/1 1/1/1
f 165/142/1 22/22/1 21/21/1
f 165/142/1 21/21/1 166/143/1
f 167/144/1 21/21/1 81/79/1
f 167/144/1 81/79/1 168/145/1
s 1
f 169/82/46 170/146/47 171/147/48
f 169/82/46 171/147/48 172/113/49
f 172/113/49 171/147/48 173/148/50
f 172/113/49 173/148/50 174/49/50
f 175/25/51 176/149/52 177/150/50
f 175/25/51 177/150/50 178/26/50
s 0
f 95/93/3 179/151/3 180/152/3
f 95/93/3 180/152/3 53/51/3
f 181/153/3 32/32/3 31/31/3
f 181/153/3 31/31/3 182/154/3
f 23/23/1 183/155/1 184/156/1
f 23/23/1 184/156/1 24/24/1
f 24/24/1 185/157/1 186/158/1
f 24/24/1 186/158/1 82/80/1
s 1
f 187/80/53 188/158/54 189/159/55
f 187/80/53 189/159/55 190/115/56
f 190/115/56 189/159/55 191/160/57
f 190/115/56 191/160/57 192/27/58
f 193/105/59 194/161/60 195/162/61
f 193/105/59 195/162/61 196/118/62
s 0
f 197/163/1 108/105/1 60/58/1
f 197/163/1 60/58/1 198/164/1
f 199/165/1 60/58/1 59/57/1
f 199/165/1 59/57/1 200/166/1
s 1
f 201/167/63 202/28/63 192/27/58
f 201/167/63 192/27/58 191/160/57
s 0
f 97/95/3 203/168/3 204/169/3
f 97/95/3 204/169/3 29/29/3
f 29/29/3 205/170/3 206/171/3
f 29/29/3 206/171/3 30/30/3
f 100/98/3 207/172/3 208/173/3
f 100/98/3 208/173/3 67/65/3
s 1
f 209/174/64 210/62/65 211/61/66
f 209/174/64 211/61/66 212/175/67
f 212/175/67 211/61/66 196/118/62
f 212/175/67 196/118/62 195/162/61
s 0
f 213/176/3 68/66/3 67/65/3
f 213/176/3 67/65/3 214/177/3
f 3/3/1 215/178/1 216/179/1
f 3/3/1 216/179/1 4/4/1
f 217/180/1 69/67/1 85/83/1
f 217/180/1 85/83/1 218/181/1
s 1
f 219/86/68 220/182/69 221/183/70
f 219/86/68 221/183/70 222/109/70
f 222/109/70 221/183/70 223/184/71
f 222/109/70 223/184/71 224/19/72
f 225/84/73 226/185/73 227/186/74
f 225/84/73 227/186/74 228/112/75
s 0
f 83/81/1 229/187/1 230/188/1
f 83/81/1 230/188/1 45/43/1
f 45/43/1 231/189/1 232/190/1
f 45/43/1 232/190/1 46/44/1
s 1
f 233/191/76 234/20/77 224/19/72
f 233/191/76 224/19/72 223/184/71
s 0
f 91/89/3 235/192/3 236/193/3
f 91/89/3 236/193/3 9/9/3
f 9/9/3 237/194/3 238/195/3
f 9/9/3 238/195/3 10/10/3
f 94/92/3 239/196/3 240/197/3
f 94/92/3 240/197/3 79/77/3
s 1
f 241/47/78 242/198/79 243/199/80
f 241/47/78 243/199/80 244/48/81
f 245/200/80 246/73/80 228/112/75
f 245/200/80 228/112/75 227/186/74
s 0
f 55/53/3 247/201/3 248/202/3
f 55/53/3 248/202/3 56/54/3
